<svg xmlns="http://www.w3.org/2000/svg" viewBox="-50 -1022 740 1325" data-status="traced" data-unicode="0045">
  <title>semibold E_ (E)</title>
  <desc>Font units, y-up (baseline 0, x-height 526, cap 700). Edit the outline path; set data-status="edited" when hand-corrected.</desc>
  <g id="guides" stroke="#3a3" stroke-width="2" opacity="0.5">
    <line x1="-50" x2="690" y1="223" y2="223"/>
    <line x1="-50" x2="690" y1="0" y2="0"/>
    <line x1="-50" x2="690" y1="-526" y2="-526"/>
    <line x1="-50" x2="690" y1="-700" y2="-700"/>
    <line x1="-50" x2="690" y1="-772" y2="-772"/>
  </g>
  <path id="outline" transform="scale(1 -1)" fill="#111" fill-rule="nonzero" d="
    M1 128 L1 557 C1 610 37 700 103 700 L640 700 L640 579 C640 560 624 544 605 544 L197 544 L197 447 L536 447 C558 447 576 438 576 427 L576 344 C576 331 538 297 527 297 L197 297 L197 199 C197 190 205 182 214 182 L618 182 C630 182 640 172 640 160 L640 21 L107 21 C65 21 1 87 1 128 Z"/>
</svg>
