<svg xmlns="http://www.w3.org/2000/svg" viewBox="-50 -1022 782 1325" data-status="traced" data-unicode="0055">
  <title>semibold U_ (U)</title>
  <desc>Font units, y-up (baseline 0, x-height 526, cap 700). Edit the outline path; set data-status="edited" when hand-corrected.</desc>
  <g id="guides" stroke="#3a3" stroke-width="2" opacity="0.5">
    <line x1="-50" x2="732" y1="223" y2="223"/>
    <line x1="-50" x2="732" y1="0" y2="0"/>
    <line x1="-50" x2="732" y1="-526" y2="-526"/>
    <line x1="-50" x2="732" y1="-700" y2="-700"/>
    <line x1="-50" x2="732" y1="-772" y2="-772"/>
  </g>
  <path id="outline" transform="scale(1 -1)" fill="#111" fill-rule="nonzero" d="
    M0 144 L0 603 C0 657 26 700 58 700 L200 700 L200 206 C200 194 210 184 222 184 L461 184 C473 184 484 195 484 207 L484 700 L642 700 C664 700 682 682 682 660 L682 161 C682 83 619 19 541 19 L125 19 C75 19 0 95 0 144 Z"/>
</svg>
