<svg xmlns="http://www.w3.org/2000/svg" viewBox="-50 -1050 740 1358" data-status="traced" data-unicode="0062">
  <title>bold b (b)</title>
  <desc>Font units, y-up (baseline 0, x-height 547, cap 700). Edit the outline path; set data-status="edited" when hand-corrected.</desc>
  <g id="guides" stroke="#3a3" stroke-width="2" opacity="0.5">
    <line x1="-50" x2="690" y1="228" y2="228"/>
    <line x1="-50" x2="690" y1="0" y2="0"/>
    <line x1="-50" x2="690" y1="-547" y2="-547"/>
    <line x1="-50" x2="690" y1="-700" y2="-700"/>
    <line x1="-50" x2="690" y1="-800" y2="-800"/>
  </g>
  <path id="outline" transform="scale(1 -1)" fill="#111" fill-rule="nonzero" d="
    M3 19 L3 679 C3 696 7 709 13 713 L158 800 C166 805 206 796 206 782 L206 547 L526 547 L532 547 C563 538 608 501 620 467 L640 411 L640 123 L619 75 C604 40 556 0 522 0 L516 0 L12 0 Z
    M432 184 L432 361 C432 373 422 383 410 383 L207 383 L207 154 L402 154 C419 154 432 168 432 184 Z"/>
</svg>
